<?xml version="1.0" encoding="UTF-8"?>
<svg id="Layer_2" data-name="Layer 2" xmlns="http://www.w3.org/2000/svg" viewBox="0 0 720 111.99">
  <defs>
    <style>
      .cls-1 {
        fill: #1238c4;
      }

      .cls-2 {
        fill: #09277c;
      }
    </style>
  </defs>
  <g id="Layer_1" data-name="Layer 1">
    <g>
      <rect class="cls-2" y=".75" width="14.74" height="68.49"/>
      <path class="cls-2" d="M452.53.75l-28.84,68.49h15.26l6.73-17.46h33.11l6.72,17.46h15.78L472.45.75h-19.92ZM449.56,42.07l3.23-8.45c2.72-6.96,5.56-14.72,7.89-21.57h3.23c2.33,6.85,5.04,14.61,7.76,21.57l3.23,8.45h-25.35Z"/>
      <polygon class="cls-2" points="571 .75 556.26 .75 556.26 69.24 605.35 69.24 605.35 57.6 571 57.6 571 .75"/>
      <polygon class="cls-2" points="720 12.05 720 .75 665.33 .75 665.33 69.24 719.87 69.24 719.87 57.94 680.07 57.94 680.07 40.13 717.45 40.13 717.45 28.95 680.07 28.95 680.07 12.05 720 12.05"/>
      <path class="cls-1" d="M340.19,102.05c.52-8.22,5.75-10.68,21.53-14.45,18.37-3.88,29.82-10.15,29.82-23.28,0-14.5-10.85-21.73-28.94-21.73-7.22,0-13.21,1.41-17.88,3.72V0h-14.74v28.8h-105.83V0h-14.74v69.24h14.74v-28.8h105.83v28.32l13.72,1.22c1.55-11.53,7.37-16.5,18.62-16.5,10.35,0,14.74,4.22,14.74,10.39,0,7.08-3.95,10.72-22.44,15.28-18.49,4.57-27.09,10.23-27.09,25.75,0,2.51,0,4.79.13,7.08h64.53v-11.07h-27.8c-6.98,0-17.07.46-24.18,1.14Z"/>
      <path class="cls-2" d="M132.31,24.5c0,9.02.65,21.57,1.42,31.28l-2.33.11c-3.49-7.87-9.31-19.4-15-28.31L99.33.75h-21.08v68.49h13.84v-23.51c0-9.02-.65-23.4-1.42-33.33l2.33-.23c3.88,8.22,9.31,18.95,13.58,25.91l19.92,31.16h19.4V.75h-13.58v23.74Z"/>
    </g>
  </g>
</svg>