<?xml version="1.0" encoding="UTF-8"?>
<svg id="Layer_3" xmlns="http://www.w3.org/2000/svg" version="1.1" viewBox="0 0 487.44 336.07">
  <!-- Generator: Adobe Illustrator 30.1.0, SVG Export Plug-In . SVG Version: 2.1.1 Build 136)  -->
  <defs>
    <style>
      .st0 {
        fill: #fff;
      }
    </style>
  </defs>
  <path class="st0" d="M413.29,302.62c-18.62,0-45.53,1.38-64.49,3.45,1.38-24.83,15.33-32.27,57.4-43.65,48.97-11.73,79.51-30.66,79.51-70.32,0-43.8-28.93-65.66-77.17-65.64-19.25,0-35.23,4.27-47.69,11.23V0h-39.31v84.73H39.32V0H0v206.92h39.32v-87.01h282.22v85.58l36.57,3.7c4.14-34.83,19.66-49.86,49.66-49.86,27.59,0,39.31,12.76,39.31,31.39,0,21.38-10.54,32.39-59.85,46.18-49.32,13.79-72.23,30.9-72.23,77.8,0,7.59,0,14.49.34,21.38h172.09v-33.45h-74.15Z"/>
</svg>